<svg width="51" height="50" viewBox="0 0 51 50" fill="none" xmlns="http://www.w3.org/2000/svg">
<path d="M3.06715 0.456541V3.016V4.41846L3.09501 4.35996C3.09501 4.37947 3.09666 4.39897 3.09733 4.41846H3.06723V6.97792C3.06723 9.44865 3.31799 11.7703 3.78345 13.9453C3.93852 14.67 4.11722 15.3788 4.31866 16.0718C4.47388 16.6057 4.65359 17.1208 4.83446 17.6349V17.6856L4.98794 18.0998V18.1001C5.23208 18.7595 5.49687 19.4031 5.7809 20.0306C6.24208 21.0495 6.76484 22.0142 7.31858 22.9485V22.9955L7.69871 23.6022V23.6025C8.23743 24.4628 8.8218 25.275 9.42612 26.0633V26.1069L9.98822 26.799V26.7993C10.2297 27.0969 10.4766 27.3875 10.7261 27.6747L0.265138 34.9457V38.9076L8.28897 49.4565L24.3849 38.2685C30.0291 41.6535 35.3768 44.5278 38.7223 47.7279C40.6161 49.4565 40.6161 49.4565 40.6161 49.4565C42.0999 48.0392 46.2629 44.1415 47.7457 42.7259C47.7457 42.7253 47.7493 42.7225 47.7498 42.7219C47.9764 42.5061 48.1991 42.293 48.3618 42.1375C48.3618 42.1374 48.3709 42.1286 48.3709 42.1285V42.1282V42.1279C48.3709 42.1274 48.3708 42.1275 48.3726 42.1269L50.2651 40.3177V36.3558L48.3728 34.546C47.4787 33.6908 46.5564 32.8876 45.616 32.1287C42.3217 29.4694 38.8155 27.3298 35.4727 25.3922H46.2251V21.4302V14.9089V10.947V4.42558V0.46366H37.9361V0.456541H14.0336H9.95221H3.06715V0.456541ZM5.74457 3.016H9.9519H14.0333H35.2584V3.02312H43.5474V10.947V18.8708H35.2584V10.947H15.2633C15.4074 11.3506 15.5619 11.7437 15.7293 12.1247V12.125C15.9114 12.5394 16.1073 12.941 16.316 13.3309V13.3313C16.5247 13.7212 16.7467 14.0995 16.9811 14.4675V14.4679C17.2154 14.8359 17.4624 15.1934 17.7212 15.5419V15.5422C17.9801 15.8908 18.251 16.23 18.5333 16.5615V16.5618C20.2277 18.5512 22.3355 20.2561 24.7423 21.9423C30.3584 25.8769 37.6695 29.064 43.8886 34.0844C44.7771 34.8014 45.6432 35.5559 46.479 36.3553C45.8283 36.9774 45.8499 36.9566 45.9903 36.8224C45.9782 36.834 45.9686 36.8433 45.9576 36.8537C45.3208 37.4619 42.0996 40.5383 40.6161 41.9565V41.9568C36.4995 38.0193 30.388 34.9811 24.2706 31.2216L8.87983 41.9194L4.00517 35.5107L17.2035 26.337C16.2701 25.5736 15.3617 24.7642 14.4924 23.9019C13.6568 23.073 12.8566 22.1965 12.1035 21.2685V21.2682C11.3503 20.3401 10.6439 19.3608 9.99593 18.3261V18.3258C9.34801 17.2911 8.7581 16.2012 8.23808 15.0523C7.97808 14.4779 7.73556 13.8886 7.51181 13.2843V13.2839C7.288 12.6795 7.08296 12.06 6.89825 11.4246C6.7135 10.7891 6.54921 10.138 6.40641 9.47059C5.97802 7.46881 5.74457 5.32166 5.74457 3.01607V3.016ZM23.1703 17.4683H32.5812V21.4302V23.73C30.3171 22.4295 28.1861 21.1817 26.3253 19.878C25.1742 19.0716 24.121 18.2772 23.1703 17.4683V17.4683Z" fill="black"/>
</svg>
